<svg width="30" height="30" viewBox="0 0 30 30" fill="none" xmlns="http://www.w3.org/2000/svg">
<g clip-path="url(#clip0_16_115)">
<path d="M24.7334 18.5207H20.8V11.5128H24.7332C27.6665 11.5128 29.8998 9.01003 29.8998 5.73976C29.8998 2.6364 27.2666 0 24.1998 0C20.9667 0.0332867 18.4668 2.23584 18.4668 5.23908V9.17694H11.4669V5.17252C11.4669 5.07242 11.4001 4.97233 11.3669 4.87223C11.0002 2.16927 8.56698 0.066795 5.70036 0.066795C2.60052 0.066795 0.000323593 2.70296 0.000323593 5.7733C-0.0329253 8.84317 2.50052 11.5128 5.53363 11.5128H9.13358V18.5207H5.1337C2.2338 18.5207 0.0337753 21.0903 0.0337753 24.3938C0.0337753 27.4639 2.63374 30 5.73381 30C8.9671 30 11.5003 27.7975 11.5003 24.7942V20.8566H18.5002V24.7942C18.5002 27.7309 21.0002 29.9667 24.2668 29.9667C27.3666 29.9667 30 27.3306 30 24.2602C29.9333 21.0235 27.7332 18.5207 24.7334 18.5207L24.7334 18.5207ZM20.8 5.23914C20.8 3.17021 22.5999 2.06898 24.3667 2.06898C26.3 2.06898 27.9 3.67072 27.9 5.63976C27.9 7.44166 26.8 9.21055 24.7666 9.21055L20.7999 9.21032L20.8 5.23914ZM9.1335 24.7944C9.1335 26.83 7.33365 27.9645 5.56677 27.9645C3.60019 27.9645 2.03355 26.4629 2.03355 24.5273C2.03355 22.7254 3.13353 20.8564 5.10017 20.8564H9.10005L9.10028 24.7943L9.1335 24.7944ZM9.1335 9.17688H5.53356C3.63347 9.17688 2.03355 7.57514 2.03355 5.6061C2.03355 3.6706 3.63347 2.06886 5.60028 2.06886C7.60037 2.06886 9.16702 3.63729 9.16702 5.5393V9.17688H9.1335ZM18.4667 18.5207H11.4668V11.5128H18.4667V18.5207ZM24.3667 27.8978C22.5668 27.8978 20.7999 26.8299 20.7999 24.7945V20.8566H24.7331C26.7997 20.8566 27.9332 22.6585 27.9332 24.3939C27.9332 26.3294 26.3 27.8978 24.3667 27.8978V27.8978Z" fill="#F7F8F8"/>
</g>
<defs>
<clipPath id="clip0_16_115">
<rect width="30" height="30" rx="4" fill="white"/>
</clipPath>
</defs>
</svg>
