<?xml version="1.0" standalone="no"?>
<!DOCTYPE svg PUBLIC "-//W3C//DTD SVG 20010904//EN"
 "http://www.w3.org/TR/2001/REC-SVG-20010904/DTD/svg10.dtd">
<svg version="1.0" xmlns="http://www.w3.org/2000/svg"
 width="700.000000pt" height="700.000000pt" viewBox="0 0 700.000000 700.000000"
 preserveAspectRatio="xMidYMid meet">
<metadata>
Created by potrace 1.14, written by Peter Selinger 2001-2017
</metadata>
<g transform="translate(0.000000,700.000000) scale(0.100000,-0.100000)"
fill="#000000" stroke="none">
<path d="M1450 6989 c-192 -20 -386 -77 -555 -162 -461 -231 -766 -638 -872
-1167 -15 -78 -17 -248 -20 -2095 -3 -1352 0 -2042 7 -2108 30 -285 130 -554
288 -777 86 -122 260 -296 382 -382 220 -156 485 -256 765 -288 126 -14 3981
-14 4113 1 628 68 1159 494 1356 1089 41 124 62 223 76 357 7 66 10 754 7
2108 -3 1846 -5 2017 -20 2095 -46 227 -135 448 -251 621 -243 365 -610 604
-1066 696 -78 15 -246 17 -2110 19 -1114 1 -2059 -2 -2100 -7z m2340 -1619
c125 -22 174 -32 235 -50 358 -105 678 -313 923 -603 567 -671 591 -1656 57
-2358 -73 -96 -160 -192 -221 -245 l-54 -45 -1330 1327 c-731 730 -1330 1332
-1330 1337 0 15 121 136 215 215 237 199 523 341 805 401 222 47 503 55 700
21z m-585 -2170 c714 -714 1297 -1301 1295 -1303 -30 -25 -232 -127 -252 -127
-7 0 -570 557 -1251 1238 l-1237 1237 40 83 c48 99 89 172 98 172 4 0 592
-585 1307 -1300z m-396 -394 l1135 -1135 -29 -11 c-26 -10 -135 -28 -265 -44
l-45 -5 -999 998 -998 998 17 129 c18 139 32 204 43 204 4 0 518 -511 1141
-1134z m352 -1159 c-11 -11 -223 46 -335 89 -513 198 -925 619 -1106 1131 -42
117 -83 281 -74 295 4 6 311 -294 765 -748 416 -417 754 -763 750 -767z"/>
</g>
</svg>
