<svg width="8" height="8" viewBox="0 0 8 8" fill="none" xmlns="http://www.w3.org/2000/svg">
<path fill-rule="evenodd" clip-rule="evenodd" d="M3.64645 7.14645C3.45119 7.34171 3.45119 7.65829 3.64645 7.85355C3.84171 8.04882 4.1583 8.04882 4.35356 7.85355L7.85356 4.35355C7.90303 4.30409 7.93996 4.24684 7.96436 4.18575C7.98512 4.1338 7.99681 4.07907 7.99943 4.02398C7.99982 4.01599 8 4.008 8 4C8 3.99171 7.9998 3.98342 7.99939 3.97514C7.99662 3.91853 7.98444 3.86439 7.96436 3.81425C7.93996 3.75316 7.90303 3.69591 7.85356 3.64645L4.35356 0.146446C4.1583 -0.0488167 3.84171 -0.0488167 3.64645 0.146446C3.45119 0.341709 3.45119 0.658291 3.64645 0.853554L6.2929 3.5L0.5 3.5C0.223858 3.5 0 3.72386 0 4C0 4.27614 0.223858 4.5 0.5 4.5L6.2929 4.5L3.64645 7.14645Z" fill="#5C6BEB"/>
</svg>
