<svg width="16" height="16" viewBox="0 0 16 16" fill="none" xmlns="http://www.w3.org/2000/svg">
<path d="M8 1C4.13437 1 1 4.21563 1 8.17813C1 11.35 3.00625 14.0375 5.7875 14.9875C5.83125 14.9969 5.86875 15 5.90625 15C6.16563 15 6.26563 14.8094 6.26563 14.6437C6.26563 14.4719 6.25937 14.0219 6.25625 13.4219C5.99375 13.4813 5.75937 13.5063 5.55 13.5063C4.20313 13.5063 3.89687 12.4594 3.89687 12.4594C3.57813 11.6313 3.11875 11.4094 3.11875 11.4094C2.50937 10.9813 3.11563 10.9687 3.1625 10.9687H3.16563C3.86875 11.0313 4.2375 11.7125 4.2375 11.7125C4.5875 12.325 5.05625 12.4969 5.475 12.4969C5.80313 12.4969 6.1 12.3906 6.275 12.3094C6.3375 11.8469 6.51875 11.5313 6.71873 11.35C5.16563 11.1687 3.53125 10.5531 3.53125 7.80313C3.53125 7.01873 3.80313 6.37813 4.25 5.87813C4.17813 5.69687 3.9375 4.96563 4.31875 3.97813C4.31875 3.97813 4.36875 3.9625 4.475 3.9625C4.72813 3.9625 5.3 4.05937 6.24375 4.71563C6.80313 4.55625 7.4 4.47813 7.99687 4.475C8.5906 4.47813 9.1906 4.55625 9.75 4.71563C10.6937 4.05937 11.2656 3.9625 11.5187 3.9625C11.625 3.9625 11.675 3.97813 11.675 3.97813C12.0563 4.96563 11.8156 5.69687 11.7437 5.87813C12.1906 6.38125 12.4625 7.02187 12.4625 7.80313C12.4625 10.5594 10.825 11.1656 9.2656 11.3437C9.5156 11.5656 9.7406 12.0031 9.7406 12.6719C9.7406 13.6313 9.73127 14.4063 9.73127 14.6406C9.73127 14.8094 9.82813 15 10.0875 15C10.125 15 10.1687 14.9969 10.2125 14.9875C12.9969 14.0375 15 11.3469 15 8.17813C15 4.21563 11.8656 1 8 1Z" fill="#95A2B3"/>
</svg>
