<svg width="48" height="48" viewBox="0 0 48 48" fill="none" xmlns="http://www.w3.org/2000/svg">
<path d="M43.4864 31.8338L25.7076 44.1422C25.2051 44.4876 24.6097 44.6725 23.9999 44.6725C23.3902 44.6725 22.7947 44.4876 22.2923 44.1422L4.51347 31.8338C4.00636 31.4814 3.62001 30.9815 3.40691 30.4019C3.19381 29.8223 3.1643 29.1912 3.32237 28.5942L8.44658 9.3783C8.56946 8.91753 8.83556 8.50771 9.20648 8.208C9.5774 7.90828 10.034 7.73417 10.5103 7.71078C10.9866 7.68739 11.458 7.81594 11.8565 8.07787C12.255 8.33981 12.56 8.72158 12.7274 9.1681L16.6019 19.5H31.3979L35.2725 9.16791C35.4399 8.72143 35.7449 8.3397 36.1434 8.0778C36.5419 7.8159 37.0133 7.68737 37.4895 7.71076C37.9658 7.73415 38.4223 7.90824 38.7932 8.20792C39.1642 8.50761 39.4303 8.91738 39.5532 9.37811L44.6775 28.5942C44.8356 29.1912 44.806 29.8223 44.5929 30.4019C44.3798 30.9815 43.9935 31.4814 43.4864 31.8338Z" fill="#F7F8F8"/>
</svg>
