<svg width="48" height="48" viewBox="0 0 48 48" fill="none" xmlns="http://www.w3.org/2000/svg">
<g clip-path="url(#clip0_17_333)">
<path d="M47.326 43.144C48.224 41.648 48.224 40.152 47.326 38.656L27.886 4.862C26.992 3.368 25.496 2.766 24 2.766C22.504 2.766 21.01 3.664 20.114 4.862L13.832 15.926L15.328 16.824C20.114 19.516 24 23.402 26.692 28.188C29.086 32.376 30.58 36.86 30.88 41.648H26.394C26.096 37.758 24.898 33.87 22.806 30.28C20.712 26.094 17.422 22.804 13.236 20.41L11.738 19.516L5.75804 29.684L7.25204 30.582C11.14 32.972 13.832 36.86 14.43 41.348H4.56004C4.26204 41.348 3.96004 41.048 3.96004 41.048C3.96004 41.048 3.66404 40.748 3.96004 40.45L6.65604 35.664C5.75804 34.77 4.56004 34.168 3.36404 33.872L0.672035 38.658C-0.225965 40.154 -0.225965 41.65 0.672035 43.146C1.56804 44.638 2.76404 45.236 4.55804 45.236H18.316V43.444C18.316 40.154 17.418 37.162 15.924 34.17C14.726 31.78 12.932 29.984 10.84 28.49L12.934 24.6C15.628 26.692 18.02 29.086 19.812 32.078C21.906 35.664 22.804 39.554 22.804 43.442V45.234H34.466V43.442C34.466 37.462 32.972 31.478 29.682 26.096C27.288 21.308 23.4 17.422 18.912 14.43L23.4 6.656C23.702 6.356 24 6.356 24 6.356C24.3 6.356 24.3 6.356 24.598 6.656L44.04 40.448C44.336 40.744 44.04 41.046 44.04 41.046C44.04 41.046 43.74 41.346 43.44 41.346H38.954V44.936H43.44C45.232 45.234 46.43 44.636 47.326 43.144Z" fill="#F7F8F8"/>
</g>
<defs>
<clipPath id="clip0_17_333">
<rect width="48" height="48" fill="white"/>
</clipPath>
</defs>
</svg>
