<svg width="48" height="48" viewBox="0 0 48 48" fill="none" xmlns="http://www.w3.org/2000/svg">
<path d="M39 4H9C7.67392 4 6.40215 4.52678 5.46447 5.46447C4.52678 6.40215 4 7.67392 4 9V39C4 40.3261 4.52678 41.5979 5.46447 42.5355C6.40215 43.4732 7.67392 44 9 44H39C40.3261 44 41.5979 43.4732 42.5355 42.5355C43.4732 41.5979 44 40.3261 44 39V9C44 7.67392 43.4732 6.40215 42.5355 5.46447C41.5979 4.52678 40.3261 4 39 4ZM29.34 11.34C29.3373 11.1633 29.3701 10.9878 29.4365 10.824C29.5029 10.6602 29.6015 10.5114 29.7265 10.3865C29.8514 10.2615 30.0002 10.1629 30.164 10.0965C30.3278 10.0301 30.5033 9.9973 30.68 10C31.0269 10.0101 31.3568 10.1524 31.6022 10.3978C31.8476 10.6432 31.9899 10.9731 32 11.32V29.12C31.9601 29.4447 31.8029 29.7435 31.5579 29.9602C31.3129 30.177 30.9971 30.2966 30.67 30.2966C30.3429 30.2966 30.0271 30.177 29.7821 29.9602C29.5371 29.7435 29.3799 29.4447 29.34 29.12V11.34ZM22.66 10.66C22.66 10.3046 22.8012 9.96378 23.0525 9.71248C23.3038 9.46118 23.6446 9.32 24 9.32C24.3554 9.32 24.6962 9.46118 24.9475 9.71248C25.1988 9.96378 25.34 10.3046 25.34 10.66V30C25.34 30.3554 25.1988 30.6962 24.9475 30.9475C24.6962 31.1988 24.3554 31.34 24 31.34C23.6446 31.34 23.3038 31.1988 23.0525 30.9475C22.8012 30.6962 22.66 30.3554 22.66 30V10.66ZM16 11.34C16.0399 11.0153 16.1971 10.7165 16.4421 10.4998C16.6871 10.283 17.0029 10.1634 17.33 10.1634C17.6571 10.1634 17.9729 10.283 18.2179 10.4998C18.4629 10.7165 18.6201 11.0153 18.66 11.34V29.14C18.66 29.315 18.6252 29.4883 18.5576 29.6498C18.4901 29.8113 18.391 29.9577 18.2663 30.0805C18.1416 30.2034 17.9938 30.3002 17.8313 30.3653C17.6688 30.4305 17.495 30.4627 17.32 30.46C16.9731 30.4499 16.6432 30.3076 16.3978 30.0622C16.1524 29.8168 16.0101 29.4869 16 29.14V11.34ZM9.34 14C9.37989 13.6753 9.53714 13.3765 9.78213 13.1598C10.0271 12.943 10.3429 12.8234 10.67 12.8234C10.9971 12.8234 11.3129 12.943 11.5579 13.1598C11.8029 13.3765 11.9601 13.6753 12 14V26C11.9947 26.3519 11.8513 26.6876 11.6005 26.9346C11.3498 27.1816 11.012 27.32 10.66 27.32C10.3115 27.3148 9.97877 27.1741 9.73233 26.9277C9.48589 26.6812 9.34516 26.3485 9.34 26V14ZM38.2 34.34C34.088 37.3376 29.0847 38.8597 24 38.66C18.9153 38.8597 13.912 37.3376 9.8 34.34C9.59118 34.0958 9.47706 33.7847 9.47843 33.4634C9.4798 33.1421 9.59657 32.832 9.80746 32.5896C10.0184 32.3472 10.3093 32.1886 10.6273 32.1428C10.9454 32.097 11.2693 32.167 11.54 32.34C15.1838 34.8847 19.5589 36.1698 24 36C28.4443 36.1714 32.8219 34.8785 36.46 32.32C36.7307 32.147 37.0546 32.077 37.3727 32.1228C37.6907 32.1686 37.9816 32.3272 38.1925 32.5696C38.4034 32.812 38.5202 33.1221 38.5216 33.4434C38.5229 33.7647 38.4088 34.0758 38.2 34.32V34.34ZM38.66 26C38.6201 26.3247 38.4629 26.6235 38.2179 26.8402C37.9729 27.057 37.6571 27.1766 37.33 27.1766C37.0029 27.1766 36.6871 27.057 36.4421 26.8402C36.1971 26.6235 36.0399 26.3247 36 26V14C36.0053 13.6481 36.1487 13.3124 36.3995 13.0654C36.6502 12.8184 36.988 12.68 37.34 12.68C37.6901 12.68 38.0258 12.8191 38.2734 13.0666C38.5209 13.3142 38.66 13.6499 38.66 14V26Z" fill="#F7F8F8"/>
</svg>
