<svg width="48" height="48" viewBox="0 0 48 48" fill="none" xmlns="http://www.w3.org/2000/svg">
<path d="M10.0847 30.3326C10.0847 33.1079 7.81759 35.375 5.04235 35.375C2.2671 35.375 0 33.1079 0 30.3326C0 27.5574 2.2671 25.2903 5.04235 25.2903H10.0847V30.3326Z" fill="#E01E5A"/>
<path d="M12.6254 30.3324C12.6254 27.5571 14.8925 25.29 17.6677 25.29C20.443 25.29 22.7101 27.5571 22.7101 30.3324V42.9578C22.7101 45.733 20.443 48.0001 17.6677 48.0001C14.8925 48.0001 12.6254 45.733 12.6254 42.9578V30.3324Z" fill="#E01E5A"/>
<path d="M17.6677 10.0847C14.8925 10.0847 12.6254 7.81759 12.6254 5.04235C12.6254 2.2671 14.8925 0 17.6677 0C20.443 0 22.7101 2.2671 22.7101 5.04235V10.0847H17.6677Z" fill="#36C5F0"/>
<path d="M17.6678 12.625C20.443 12.625 22.7101 14.8921 22.7101 17.6673C22.7101 20.4426 20.443 22.7097 17.6678 22.7097H5.04235C2.2671 22.7097 0 20.4426 0 17.6673C0 14.8921 2.2671 12.625 5.04235 12.625H17.6678Z" fill="#36C5F0"/>
<path d="M37.9153 17.6673C37.9153 14.8921 40.1824 12.625 42.9576 12.625C45.7329 12.625 48 14.8921 48 17.6673C48 20.4426 45.7329 22.7097 42.9576 22.7097H37.9153V17.6673Z" fill="#2EB67D"/>
<path d="M35.3746 17.6678C35.3746 20.443 33.1075 22.7101 30.3323 22.7101C27.557 22.7101 25.2899 20.443 25.2899 17.6678V5.04235C25.2899 2.2671 27.557 0 30.3323 0C33.1075 0 35.3746 2.2671 35.3746 5.04235V17.6678Z" fill="#2EB67D"/>
<path d="M30.3323 37.9148C33.1075 37.9148 35.3746 40.1819 35.3746 42.9571C35.3746 45.7324 33.1075 47.9995 30.3323 47.9995C27.557 47.9995 25.2899 45.7324 25.2899 42.9571V37.9148H30.3323Z" fill="#ECB22E"/>
<path d="M30.3323 35.375C27.557 35.375 25.2899 33.1079 25.2899 30.3326C25.2899 27.5574 27.557 25.2903 30.3323 25.2903H42.9577C45.7329 25.2903 48 27.5574 48 30.3326C48 33.1079 45.7329 35.375 42.9577 35.375H30.3323Z" fill="#ECB22E"/>
</svg>
