<svg width="32" height="48" viewBox="0 0 32 48" fill="none" xmlns="http://www.w3.org/2000/svg">
<path d="M16.0001 23.9998C16.0001 21.878 16.843 19.8432 18.3433 18.3429C19.8436 16.8426 21.8784 15.9998 24.0001 15.9998C26.1219 15.9998 28.1567 16.8426 29.657 18.3429C31.1573 19.8432 32.0002 21.878 32.0002 23.9998C32.0002 26.1215 31.1573 28.1563 29.657 29.6566C28.1567 31.1569 26.1219 31.9998 24.0001 31.9998C21.8784 31.9998 19.8436 31.1569 18.3433 29.6566C16.843 28.1563 16.0001 26.1215 16.0001 23.9998Z" fill="#F7F8F8"/>
<path d="M0 40.0003C0 37.8785 0.842856 35.8437 2.34315 34.3434C3.84344 32.8431 5.87828 32.0002 8.00002 32.0002H16V40.0003C16 42.122 15.1572 44.1568 13.6569 45.6571C12.1566 47.1574 10.1218 48.0003 8.00002 48.0003C5.87828 48.0003 3.84344 47.1574 2.34315 45.6571C0.842856 44.1568 0 42.122 0 40.0003H0Z" fill="#0ACF83"/>
<path d="M16.0001 0V16H24.0001C26.1219 16 28.1567 15.1572 29.657 13.6569C31.1573 12.1566 32.0002 10.1218 32.0002 8.00002C32.0002 5.87828 31.1573 3.84344 29.657 2.34315C28.1567 0.842856 26.1219 0 24.0001 0L16.0001 0Z" fill="#FF7262"/>
<path d="M0 8.00002C0 10.1218 0.842856 12.1566 2.34315 13.6569C3.84344 15.1572 5.87828 16 8.00002 16H16V0H8.00002C5.87828 0 3.84344 0.842856 2.34315 2.34315C0.842856 3.84344 0 5.87828 0 8.00002H0Z" fill="#F24E1E"/>
<path d="M0 23.9998C0 26.1215 0.842856 28.1563 2.34315 29.6566C3.84344 31.1569 5.87828 31.9998 8.00002 31.9998H16V15.9998H8.00002C5.87828 15.9998 3.84344 16.8426 2.34315 18.3429C0.842856 19.8432 0 21.878 0 23.9998H0Z" fill="#A259FF"/>
</svg>
