<svg width="16" height="16" viewBox="0 0 16 16" fill="none" xmlns="http://www.w3.org/2000/svg">
<path d="M3.36156 10.111C3.36156 11.036 2.60586 11.7917 1.68078 11.7917C0.7557 11.7917 0 11.036 0 10.111C0 9.18588 0.7557 8.43018 1.68078 8.43018H3.36156V10.111Z" fill="#95A2B3"/>
<path d="M4.2085 10.111C4.2085 9.18588 4.9642 8.43018 5.88928 8.43018C6.81436 8.43018 7.57006 9.18588 7.57006 10.111V14.3194C7.57006 15.2445 6.81436 16.0002 5.88928 16.0002C4.9642 16.0002 4.2085 15.2445 4.2085 14.3194V10.111Z" fill="#95A2B3"/>
<path d="M5.88928 3.36156C4.9642 3.36156 4.2085 2.60586 4.2085 1.68078C4.2085 0.7557 4.9642 0 5.88928 0C6.81436 0 7.57006 0.7557 7.57006 1.68078V3.36156H5.88928Z" fill="#95A2B3"/>
<path d="M5.88925 4.2085C6.81433 4.2085 7.57003 4.9642 7.57003 5.88928C7.57003 6.81436 6.81433 7.57006 5.88925 7.57006H1.68078C0.755701 7.57006 0 6.81436 0 5.88928C0 4.9642 0.755701 4.2085 1.68078 4.2085H5.88925Z" fill="#95A2B3"/>
<path d="M12.6384 5.88928C12.6384 4.9642 13.3941 4.2085 14.3192 4.2085C15.2443 4.2085 16 4.9642 16 5.88928C16 6.81436 15.2443 7.57006 14.3192 7.57006H12.6384V5.88928Z" fill="#95A2B3"/>
<path d="M11.7915 5.88925C11.7915 6.81433 11.0358 7.57003 10.1107 7.57003C9.18563 7.57003 8.42993 6.81433 8.42993 5.88925V1.68078C8.42993 0.755701 9.18563 0 10.1107 0C11.0358 0 11.7915 0.755701 11.7915 1.68078V5.88925Z" fill="#95A2B3"/>
<path d="M10.1107 12.6382C11.0358 12.6382 11.7915 13.3939 11.7915 14.319C11.7915 15.244 11.0358 15.9997 10.1107 15.9997C9.18563 15.9997 8.42993 15.244 8.42993 14.319V12.6382H10.1107Z" fill="#95A2B3"/>
<path d="M10.1107 11.7917C9.18563 11.7917 8.42993 11.036 8.42993 10.111C8.42993 9.18588 9.18563 8.43018 10.1107 8.43018H14.3192C15.2443 8.43018 16 9.18588 16 10.111C16 11.036 15.2443 11.7917 14.3192 11.7917H10.1107Z" fill="#95A2B3"/>
</svg>
