<svg width="30" height="30" viewBox="0 0 30 30" fill="none" xmlns="http://www.w3.org/2000/svg">
<path d="M9.67318 15.0003C12.0391 15.0003 13.9571 13.0823 13.9571 10.7163C13.9571 8.35037 12.0391 6.43237 9.67318 6.43237C7.30721 6.43237 5.38922 8.35037 5.38922 10.7163C5.38922 13.0823 7.30721 15.0003 9.67318 15.0003Z" fill="#5C6BEB"/>
<path d="M9.67403 17.1428C5.38151 17.1428 1.8858 20.0216 1.8858 23.5688C1.8858 23.8087 2.0743 23.9972 2.3142 23.9972H17.0339C17.2738 23.9972 17.4623 23.8087 17.4623 23.5688C17.4623 20.0216 13.9666 17.1428 9.67403 17.1428Z" fill="#5C6BEB"/>
<path fill-rule="evenodd" clip-rule="evenodd" d="M19.4568 24.034C19.4571 24.0274 19.4572 24.0208 19.4572 24.0142C19.4572 22.3943 18.7088 20.9266 17.5 19.8617C18.7248 18.7932 20.4584 18.1262 22.3766 18.1262C26.0763 18.1262 29.0893 20.6075 29.0893 23.6647C29.0893 23.8715 28.9268 24.034 28.72 24.034H19.4568Z" fill="#5C6BEB"/>
<path d="M22.8394 16.25C24.9104 16.25 26.5894 14.5711 26.5894 12.5C26.5894 10.4289 24.9104 8.75 22.8394 8.75C20.7683 8.75 19.0894 10.4289 19.0894 12.5C19.0894 14.5711 20.7683 16.25 22.8394 16.25Z" fill="#5C6BEB"/>
</svg>
