<svg width="30" height="30" viewBox="0 0 30 30" fill="none" xmlns="http://www.w3.org/2000/svg">
<path d="M25.372 22.8417C19.588 29.5754 8.62386 27.7626 5.257 19.6475C2.2354 12.655 6.72469 3.76252 15.2714 2.98552C15.962 2.89914 16.3074 3.76248 15.8758 4.19422C12.8542 7.82015 12.6816 12.3958 14.5809 16.0215C16.3938 19.4747 20.106 22.0648 24.8542 21.6328C25.5447 21.5464 25.8901 22.4097 25.3721 22.8415L25.372 22.8417ZM23.1274 23.1007C18.4654 22.7553 14.9258 20.0791 13.1991 16.4531C11.3862 12.9136 11.3862 8.51084 13.717 4.71198C7.06948 6.43865 4.13419 13.604 6.6379 19.2157C9.40052 25.6044 17.6882 27.5896 23.1272 23.1006L23.1274 23.1007Z" fill="#5C6BEB"/>
</svg>
