<svg width="30" height="30" viewBox="0 0 30 30" fill="none" xmlns="http://www.w3.org/2000/svg">
<path d="M24.5828 14.5888C24.3121 12.813 23.2348 11.2621 21.665 10.3884C20.0955 9.51501 18.2099 9.4168 16.5577 10.1225C15.5475 8.28256 13.7075 7.04701 11.6221 6.80837C9.53633 6.56971 7.46477 7.35775 6.06496 8.92221C4.66537 10.4866 4.11174 12.6328 4.57972 14.6791C3.58796 14.8865 2.69776 15.4294 2.0587 16.216C1.41992 17.0026 1.07115 17.9853 1.07144 18.9987C1.07144 21.4289 3.04108 23.4085 5.4713 23.4085H9.12341C8.48663 21.5163 8.79963 19.4334 9.96451 17.8122C11.1297 16.1908 13.0037 15.2296 15.0003 15.2296C16.9966 15.2296 18.8709 16.1907 20.0358 17.8122C21.2007 19.4334 21.514 21.5163 20.8769 23.4085H24.529C26.9581 23.4085 28.9286 21.4289 28.9286 18.9987C28.9286 16.5869 26.9879 14.6186 24.5826 14.5889L24.5828 14.5888Z" fill="#5C6BEB"/>
<path d="M7.4057 14.6121H23.7924V23.4087H7.4057V14.6121Z" fill="#5C6BEB"/>
</svg>
