<svg width="30" height="30" viewBox="0 0 30 30" fill="none" xmlns="http://www.w3.org/2000/svg">
<path d="M9.56081 9.0105L22.7569 22.2043C22.5079 22.2454 22.2512 22.2659 21.9919 22.2659H8.82906C7.92276 22.2659 7.06782 22.0477 6.31302 21.6625C4.52615 20.746 3.30151 18.8872 3.30151 16.7407C3.30151 13.95 5.37081 11.6419 8.05905 11.2672C8.42361 10.4251 8.9345 9.6626 9.56095 9.01052L9.56081 9.0105Z" fill="#5C6BEB"/>
<path d="M9.37867 9.19306C9.49676 9.31115 9.61486 9.42925 9.7304 9.54479C10.0513 9.86571 10.3697 10.1841 10.6906 10.505L12.1103 11.9247C12.688 12.5024 13.2656 13.08 13.8433 13.6577C14.4749 14.2893 15.109 14.9234 15.7406 15.555C16.3799 16.1943 17.0166 16.831 17.6559 17.4703L20.9524 20.7668C21.3144 21.1288 21.6764 21.4908 22.0384 21.8528C22.2078 22.0222 22.3722 22.2071 22.5519 22.3663C22.5596 22.374 22.5673 22.3817 22.575 22.3894C22.6135 22.2456 22.6495 22.1044 22.688 21.9606C22.2156 22.0377 21.7252 22.0146 21.2477 22.0146H19.0217H15.9871H12.8292H10.2336H8.88571C7.57122 22.0146 6.2901 21.5524 5.30935 20.6667C4.16428 19.632 3.5199 18.1378 3.56097 16.5948C3.59948 15.1494 4.24648 13.7707 5.32221 12.808C5.84082 12.3433 6.45441 11.9813 7.11424 11.7579C7.28626 11.6989 7.46084 11.6501 7.63797 11.609C7.7304 11.5885 7.82283 11.5679 7.91525 11.5525C8.02308 11.532 8.15658 11.5346 8.2413 11.4524C8.31833 11.3754 8.35427 11.2367 8.40048 11.1392C8.45183 11.0339 8.50574 10.9287 8.55966 10.8234C8.67005 10.618 8.79072 10.4152 8.92165 10.22C9.16299 9.85547 9.44027 9.51401 9.74321 9.19567C9.97171 8.95691 9.60971 8.59232 9.38122 8.83367C8.73937 9.5089 8.21305 10.2894 7.83823 11.1417C7.88958 11.1032 7.94093 11.0622 7.99227 11.0236C6.57506 11.2265 5.25033 11.9761 4.34915 13.0904C3.41975 14.2405 2.94738 15.7142 3.06545 17.1905C3.18868 18.7206 3.92039 20.1737 5.10137 21.1622C6.1617 22.0505 7.49417 22.5281 8.87543 22.5281H10.1052H12.5468H15.5788H18.5878H20.9267H21.9819C22.2669 22.5281 22.5467 22.4998 22.8265 22.4562C23.0242 22.4254 23.0653 22.1532 22.9395 22.0274L10.28 9.36789C10.108 9.19588 9.94108 9.0213 9.76648 8.85439L9.74337 8.83129C9.50974 8.59509 9.14518 8.95966 9.3788 9.19329L9.37867 9.19306Z" fill="#5C6BEB"/>
<path d="M26.6957 17.5627C26.6957 18.8566 26.1668 20.0325 25.3145 20.8874C25.1733 21.026 25.0269 21.1596 24.8703 21.2802L11.2634 7.67331C12.4008 7.01095 13.723 6.63354 15.1325 6.63354C18.9014 6.63354 22.0387 9.33957 22.7086 12.9135C24.9577 13.2601 26.6958 15.219 26.6958 17.5631L26.6957 17.5627Z" fill="#5C6BEB"/>
<path d="M26.4389 17.5628C26.4338 18.9518 25.7765 20.2432 24.6879 21.0981H25.0499L11.9975 8.04564C11.8229 7.87106 11.6534 7.68108 11.4686 7.51675L11.4455 7.49364C11.4275 7.62714 11.4121 7.76321 11.3941 7.89671C13.1836 6.86465 15.353 6.6156 17.3272 7.22149C18.9754 7.72724 20.426 8.81841 21.3682 10.2638C21.9099 11.0905 22.2771 12.0148 22.4619 12.9878C22.4773 13.0674 22.5621 13.1547 22.6416 13.1675C24.2745 13.4268 25.6814 14.577 26.2077 16.1534C26.3592 16.6053 26.4362 17.0802 26.4388 17.5629C26.4414 17.8941 26.9548 17.8941 26.9523 17.5629C26.9446 15.7195 25.8868 13.984 24.2411 13.1444C23.7816 12.9108 23.2861 12.7465 22.7752 12.6643C22.8342 12.7234 22.8958 12.785 22.9549 12.844C22.6108 11.0289 21.6147 9.35239 20.1821 8.18422C18.6982 6.97245 16.8137 6.3229 14.8983 6.37937C13.5761 6.41788 12.277 6.79015 11.132 7.44998C10.9882 7.53214 10.9625 7.73753 11.0806 7.85306C11.2013 7.97373 11.3245 8.09696 11.4452 8.21763L12.4311 9.2035C12.9189 9.69132 13.4092 10.1817 13.897 10.6695C14.4927 11.2651 15.0909 11.8633 15.6865 12.4589C16.336 13.1085 16.9882 13.7606 17.6377 14.4101C18.2975 15.0699 18.9573 15.7297 19.6171 16.3896C20.2282 17.0006 20.8418 17.6142 21.4528 18.2253C21.9714 18.7465 22.4926 19.265 23.0112 19.7836C23.386 20.1585 23.7583 20.5307 24.1331 20.9056C24.3103 21.0827 24.4823 21.2624 24.662 21.4345C24.6697 21.4422 24.6774 21.4499 24.6851 21.4576C24.793 21.5654 24.9393 21.5423 25.0471 21.4576C26.2384 20.523 26.9418 19.0725 26.9495 17.5603C26.9521 17.2316 26.4386 17.2316 26.4386 17.5628L26.4389 17.5628Z" fill="#5C6BEB"/>
<path d="M4.37982 5.43176C4.55954 5.61147 4.74182 5.79376 4.92153 5.97347C5.41447 6.46641 5.90482 6.95676 6.39776 7.4497C7.12177 8.1737 7.84831 8.90024 8.57231 9.62425L11.2244 12.2763C12.1923 13.2442 13.1602 14.2121 14.1281 15.1801C15.1089 16.1608 16.0896 17.1415 17.0703 18.1223L22.1227 23.1746C22.6772 23.7292 23.2292 24.2812 23.7838 24.8357C24.0457 25.0976 24.3075 25.362 24.572 25.6239L24.6053 25.6573C24.8903 25.9423 25.4141 25.9628 25.6939 25.6573C25.9763 25.3492 25.9995 24.8717 25.6939 24.5687C25.5142 24.389 25.3319 24.2067 25.1522 24.027L23.676 22.5508C22.952 21.8268 22.2255 21.1002 21.5014 20.3762C20.6183 19.4931 19.7325 18.6073 18.8494 17.7241C17.8815 16.7562 16.9136 15.7883 15.9456 14.8204C14.9649 13.8396 13.9842 12.8589 13.0034 11.8782L6.28964 5.1644C6.02777 4.90253 5.76591 4.63808 5.50146 4.37622C5.49119 4.36595 5.47835 4.35311 5.46808 4.34284C5.1831 4.05786 4.65934 4.03732 4.37949 4.34284C4.09708 4.65093 4.07398 5.12844 4.37949 5.43143L4.37982 5.43176Z" fill="#5C6BEB"/>
</svg>
