<svg width="30" height="30" viewBox="0 0 30 30" fill="none" xmlns="http://www.w3.org/2000/svg">
<path d="M20.1911 16.8777H18.0933V13.1402H20.191C21.7555 13.1402 22.9466 11.8053 22.9466 10.0612C22.9466 8.40608 21.5422 7 19.9065 7C18.1823 7.01775 16.8489 8.19245 16.8489 9.79417V11.8944H13.1157V9.75867C13.1157 9.70529 13.0801 9.65191 13.0623 9.59852C12.8668 8.15694 11.5691 7.03562 10.0402 7.03562C8.38695 7.03562 7.00017 8.44158 7.00017 10.0791C6.98244 11.7164 8.33361 13.1402 9.95127 13.1402H11.8712V16.8777H9.73797C8.19136 16.8777 7.01801 18.2481 7.01801 20.0101C7.01801 21.6474 8.40466 23 10.058 23C11.7825 23 13.1335 21.8253 13.1335 20.2236V18.1235H16.8668V20.2236C16.8668 21.7898 18.2001 22.9823 19.9423 22.9823C21.5955 22.9823 23 21.5763 23 19.9388C22.9644 18.2125 21.7911 16.8777 20.1912 16.8777L20.1911 16.8777ZM18.0933 9.79421C18.0933 8.69078 19.0533 8.10346 19.9956 8.10346C21.0267 8.10346 21.88 8.95771 21.88 10.0079C21.88 10.9689 21.2933 11.9123 20.2089 11.9123L18.0933 11.9122L18.0933 9.79421ZM11.8712 20.2237C11.8712 21.3093 10.9113 21.9144 9.96894 21.9144C8.9201 21.9144 8.08456 21.1135 8.08456 20.0812C8.08456 19.1202 8.67122 18.1234 9.72009 18.1234H11.8534L11.8535 20.2236L11.8712 20.2237ZM11.8712 11.8943H9.95123C8.93785 11.8943 8.08456 11.0401 8.08456 9.98992C8.08456 8.95765 8.93785 8.10339 9.98682 8.10339C11.0535 8.10339 11.8891 8.93989 11.8891 9.95429V11.8943H11.8712ZM16.8489 16.8777H13.1156V13.1402H16.8489V16.8777ZM19.9956 21.8788C19.0356 21.8788 18.0933 21.3093 18.0933 20.2237V18.1235H20.191C21.2932 18.1235 21.8977 19.0845 21.8977 20.0101C21.8977 21.0423 21.0267 21.8788 19.9956 21.8788Z" fill="#5C6BEB"/>
<rect x="0.5" y="0.5" width="29" height="29" rx="3.5" stroke="#5C6BEB"/>
</svg>
