<svg width="78" height="16" viewBox="0 0 78 16" fill="none" xmlns="http://www.w3.org/2000/svg">
<path d="M0.946023 8.70739V7.11648L10.3778 2.54261V4.70881L3.41761 7.88352L3.48153 7.75568V8.06108L3.41761 7.94034L10.3778 11.108V13.2812L0.946023 8.70739ZM13.7195 15V13.4091L18.6413 8.30966C19.1669 7.75568 19.6001 7.27036 19.9411 6.85369C20.2867 6.43229 20.5447 6.0322 20.7152 5.65341C20.8857 5.27462 20.9709 4.87216 20.9709 4.44602C20.9709 3.96307 20.8572 3.5464 20.63 3.19602C20.4027 2.84091 20.0926 2.56866 19.6996 2.37926C19.3066 2.18513 18.8639 2.08807 18.3714 2.08807C17.8506 2.08807 17.3961 2.1946 17.0078 2.40767C16.6196 2.62074 16.3213 2.9214 16.1129 3.30966C15.9046 3.69792 15.8004 4.15246 15.8004 4.6733H13.7053C13.7053 3.78788 13.9089 3.01373 14.3161 2.35085C14.7232 1.68797 15.282 1.17424 15.9922 0.809659C16.7024 0.44034 17.5097 0.255681 18.4141 0.255681C19.3279 0.255681 20.1328 0.437973 20.8288 0.802556C21.5296 1.1624 22.0765 1.65483 22.4695 2.27983C22.8625 2.90009 23.0589 3.60085 23.0589 4.3821C23.0589 4.92188 22.9571 5.44981 22.7536 5.96591C22.5547 6.48201 22.2067 7.05729 21.7095 7.69176C21.2124 8.3215 20.5211 9.08617 19.6357 9.9858L16.745 13.0114V13.1179H23.2933V15H13.7195ZM31.049 15.2415C29.9268 15.2367 28.968 14.9408 28.1726 14.3537C27.3771 13.7666 26.7687 12.9119 26.3473 11.7898C25.9259 10.6676 25.7152 9.31581 25.7152 7.73438C25.7152 6.15767 25.9259 4.81061 26.3473 3.69318C26.7734 2.57576 27.3842 1.72348 28.1797 1.13636C28.9799 0.549242 29.9363 0.255681 31.049 0.255681C32.1617 0.255681 33.1158 0.551609 33.9112 1.14347C34.7067 1.73059 35.3151 2.58286 35.7365 3.70028C36.1626 4.81297 36.3757 6.15767 36.3757 7.73438C36.3757 9.32055 36.165 10.6747 35.7436 11.7969C35.3222 12.9143 34.7138 13.7689 33.9183 14.3608C33.1229 14.9479 32.1664 15.2415 31.049 15.2415ZM31.049 13.3452C32.0339 13.3452 32.8033 12.8646 33.3572 11.9034C33.916 10.9422 34.1953 9.55256 34.1953 7.73438C34.1953 6.52699 34.0675 5.50663 33.8118 4.6733C33.5608 3.83523 33.1986 3.20076 32.7251 2.76989C32.2564 2.33428 31.6977 2.11648 31.049 2.11648C30.0689 2.11648 29.2995 2.59943 28.7408 3.56534C28.1821 4.53125 27.9003 5.92093 27.8956 7.73438C27.8956 8.9465 28.0211 9.97159 28.272 10.8097C28.5277 11.643 28.8899 12.2751 29.3587 12.706C29.8274 13.1321 30.3909 13.3452 31.049 13.3452ZM43.9592 15.2415C42.837 15.2367 41.8782 14.9408 41.0827 14.3537C40.2873 13.7666 39.6789 12.9119 39.2575 11.7898C38.8361 10.6676 38.6254 9.31581 38.6254 7.73438C38.6254 6.15767 38.8361 4.81061 39.2575 3.69318C39.6836 2.57576 40.2944 1.72348 41.0898 1.13636C41.89 0.549242 42.8465 0.255681 43.9592 0.255681C45.0719 0.255681 46.0259 0.551609 46.8214 1.14347C47.6168 1.73059 48.2253 2.58286 48.6467 3.70028C49.0728 4.81297 49.2859 6.15767 49.2859 7.73438C49.2859 9.32055 49.0752 10.6747 48.6538 11.7969C48.2324 12.9143 47.6239 13.7689 46.8285 14.3608C46.033 14.9479 45.0766 15.2415 43.9592 15.2415ZM43.9592 13.3452C44.944 13.3452 45.7134 12.8646 46.2674 11.9034C46.8261 10.9422 47.1055 9.55256 47.1055 7.73438C47.1055 6.52699 46.9776 5.50663 46.7219 4.6733C46.471 3.83523 46.1088 3.20076 45.6353 2.76989C45.1665 2.33428 44.6078 2.11648 43.9592 2.11648C42.979 2.11648 42.2096 2.59943 41.6509 3.56534C41.0922 4.53125 40.8105 5.92093 40.8058 7.73438C40.8058 8.9465 40.9312 9.97159 41.1822 10.8097C41.4379 11.643 41.8001 12.2751 42.2688 12.706C42.7376 13.1321 43.301 13.3452 43.9592 13.3452ZM51.8338 15V4.09091H53.8722V5.86648H54.0071C54.2344 5.26515 54.6061 4.7964 55.1222 4.46023C55.6383 4.11932 56.2562 3.94886 56.9759 3.94886C57.705 3.94886 58.3158 4.11932 58.8082 4.46023C59.3054 4.80114 59.6723 5.26989 59.9091 5.86648H60.0227C60.2831 5.28409 60.6974 4.82008 61.2656 4.47443C61.8338 4.12405 62.5109 3.94886 63.2969 3.94886C64.2865 3.94886 65.0938 4.259 65.7188 4.87926C66.3485 5.49953 66.6634 6.43466 66.6634 7.68466V15H64.5398V7.88352C64.5398 7.14489 64.3385 6.60985 63.9361 6.27841C63.5336 5.94697 63.053 5.78125 62.4943 5.78125C61.803 5.78125 61.2656 5.99432 60.8821 6.42045C60.4986 6.84186 60.3068 7.384 60.3068 8.04688V15H58.1903V7.74858C58.1903 7.15672 58.0057 6.68087 57.6364 6.32102C57.267 5.96117 56.7865 5.78125 56.1946 5.78125C55.7921 5.78125 55.4205 5.88778 55.0795 6.10085C54.7434 6.30919 54.4711 6.60038 54.2628 6.97443C54.0592 7.34848 53.9574 7.78172 53.9574 8.27415V15H51.8338ZM77.6843 6.75426L75.7596 7.09517C75.6791 6.84896 75.5513 6.61458 75.3761 6.39205C75.2056 6.16951 74.9736 5.98722 74.68 5.84517C74.3865 5.70312 74.0195 5.6321 73.5792 5.6321C72.9779 5.6321 72.476 5.76705 72.0735 6.03693C71.671 6.30208 71.4698 6.64536 71.4698 7.06676C71.4698 7.43134 71.6048 7.72491 71.8746 7.94744C72.1445 8.16998 72.5801 8.35227 73.1815 8.49432L74.9144 8.89205C75.9182 9.12405 76.6663 9.48153 77.1587 9.96449C77.6512 10.4474 77.8974 11.0748 77.8974 11.8466C77.8974 12.5 77.708 13.0824 77.3292 13.5938C76.9551 14.1004 76.4319 14.4981 75.7596 14.7869C75.092 15.0758 74.3178 15.2202 73.4371 15.2202C72.2156 15.2202 71.2189 14.9598 70.4471 14.4389C69.6753 13.9134 69.2018 13.1676 69.0266 12.2017L71.0792 11.8892C71.207 12.4242 71.4698 12.8291 71.8675 13.1037C72.2653 13.3736 72.7837 13.5085 73.4229 13.5085C74.119 13.5085 74.6753 13.3641 75.092 13.0753C75.5086 12.7817 75.717 12.4242 75.717 12.0028C75.717 11.6619 75.5891 11.3755 75.3335 11.1435C75.0825 10.9115 74.6966 10.7363 74.1758 10.6179L72.3292 10.2131C71.3112 9.98106 70.5584 9.61174 70.0707 9.10511C69.5877 8.59848 69.3462 7.95691 69.3462 7.1804C69.3462 6.53646 69.5262 5.97301 69.886 5.49006C70.2459 5.0071 70.743 4.63068 71.3775 4.3608C72.012 4.08617 72.7388 3.94886 73.5579 3.94886C74.7369 3.94886 75.6649 4.20455 76.342 4.71591C77.0191 5.22254 77.4665 5.90199 77.6843 6.75426Z" fill="#5C6BEB"/>
</svg>
