<svg width="16" height="16" viewBox="0 0 16 16" fill="none" xmlns="http://www.w3.org/2000/svg">
<path d="M15.3751 3.42187C14.8313 3.6625 14.2501 3.825 13.6375 3.9C14.2625 3.525 14.7438 2.93125 14.9688 2.225C14.3844 2.57187 13.7375 2.825 13.0469 2.95937C12.4938 2.36875 11.7063 2 10.8375 2C9.16567 2 7.81253 3.35625 7.81253 5.02813C7.81253 5.26563 7.83753 5.49687 7.89067 5.71875C5.37505 5.59375 3.1438 4.3875 1.65317 2.55313C1.3938 3 1.2438 3.52187 1.2438 4.075C1.2438 5.125 1.7813 6.05313 2.5938 6.59687C2.0938 6.58437 1.62505 6.44687 1.2188 6.21875V6.25625C1.2188 7.725 2.26255 8.94687 3.64693 9.225C3.3938 9.29373 3.12505 9.33127 2.85005 9.33127C2.6563 9.33127 2.46567 9.31247 2.2813 9.275C2.66567 10.4781 3.78443 11.3531 5.10943 11.3781C4.07505 12.1906 2.7688 12.675 1.35005 12.675C1.1063 12.675 0.865673 12.6594 0.628174 12.6313C1.96255 13.5 3.55317 14 5.25943 14C10.8313 14 13.8751 9.3844 13.8751 5.38125C13.8751 5.25 13.8719 5.11875 13.8657 4.99063C14.4563 4.5625 14.9688 4.03125 15.3751 3.42187Z" fill="#95A2B3"/>
</svg>
